<svg width="31" height="31" viewBox="0 0 31 31" fill="none" xmlns="http://www.w3.org/2000/svg">
<path d="M11.7322 5.64767C12.24 2.76786 14.9862 0.844958 17.866 1.35275L25.6875 2.7319C28.5673 3.23968 30.4902 5.98588 29.9824 8.86569L26.9943 25.8124C26.4865 28.6922 23.7403 30.6151 20.8605 30.1073L13.0389 28.7281C10.1591 28.2204 8.23623 25.4742 8.74402 22.5944L11.7322 5.64767Z" fill="#9CAAB0"/>
<path d="M7.43455 4.08508C7.87887 1.56524 10.2818 -0.117296 12.8016 0.327019L21.9268 1.93603C24.4466 2.38034 26.1291 4.78326 25.6848 7.3031L22.4668 25.5534C22.0225 28.0732 19.6196 29.7557 17.0997 29.3114L7.9746 27.7024C5.45477 27.2581 3.77222 24.8552 4.21654 22.3354L7.43455 4.08508Z" fill="#A7B5BB"/>
<path d="M0.617233 5.56284C0.636502 3.00421 2.72631 0.945645 5.28494 0.964914L14.5506 1.03469C17.1092 1.05396 19.1678 3.14377 19.1485 5.7024L19.009 24.2337C18.9897 26.7923 16.8999 28.8509 14.3412 28.8316L5.07561 28.7618C2.51697 28.7426 0.458404 26.6528 0.477673 24.0941L0.617233 5.56284Z" fill="#B8C5CB"/>
</svg>
