<svg width="266" height="800" viewBox="0 0 266 800" fill="none" xmlns="http://www.w3.org/2000/svg">
<path d="M46.0724 570.1L25.0182 579.426C24.9103 579.474 24.8127 579.542 24.731 579.628C24.0437 580.344 24.8414 581.485 25.7504 581.086L30.3689 579.058C30.5571 578.975 30.7661 578.952 30.9676 578.993L42.6168 581.329C42.7287 581.351 42.8344 581.392 42.9328 581.45C56.3497 589.319 83.8749 583.573 83.3103 583.429C68.3842 579.63 49.8385 574.647 44.0765 578.931C43.9283 579.042 43.7614 579.119 43.5782 579.142C39.553 579.634 34.7039 578.228 32.6923 577.803C32.1438 577.687 32.1834 577.626 32.7073 577.426L46.8869 572.028C47.1417 571.931 47.4173 571.941 47.6684 572.047C65.6678 579.652 118.591 539.398 119.744 539.284C86.9174 546.561 49.4455 559.121 46.6851 569.349C46.5962 569.679 46.3844 569.962 46.0724 570.1Z" fill="#8E998F"/>
<path d="M64.5854 532.262C46.0547 544.105 36.6678 561.544 34.4615 569.421C34.2519 570.169 34.9851 570.765 35.6878 570.434C48.0316 564.605 56.4813 548.748 64.5854 532.262Z" fill="#8E998F"/>
<path d="M30.4916 554.1C33.4749 548.337 38.4792 536.822 39.1373 535.302C39.1853 535.192 39.2492 535.094 39.3338 535.008C40.1955 534.132 45.3172 529.015 47.6408 528.748C47.7272 528.738 47.811 528.725 47.8941 528.699C54.7537 526.578 60.0507 523.365 80.1176 478.928L80.1301 478.901C80.2887 478.549 80.3022 478.52 80.0453 478.831C76.3275 483.331 46.2299 514.553 46.2283 526.098C46.2283 526.418 46.1036 526.714 45.8601 526.923L40.7177 531.327C40.53 531.488 40.2411 531.345 40.2549 531.098C40.2559 531.079 40.2586 531.061 40.2636 531.043C43.0274 520.669 50.4509 494.799 57.548 484.692C57.5911 484.63 57.6386 484.577 57.6945 484.527C65.1606 477.838 74.3145 467.44 91.5026 413.496C91.1547 414.849 55.8433 460.22 54.4642 482.209C54.4575 482.315 54.437 482.41 54.3986 482.508C50.0699 493.622 42.3425 516.387 41.7237 519.861C45.4858 491.289 42.7482 470.961 41.0587 443.119C41.1109 443.809 28.6638 503.612 36.9705 516.449C37.9707 517.995 39.4953 518.24 39.9355 522.114C40.3655 525.899 32.4851 543.96 28.5966 553.142C28.4333 553.527 28.5303 553.968 28.8357 554.254L28.9451 554.357C29.4219 554.804 30.1912 554.68 30.4916 554.1Z" fill="#8E998F"/>
<path d="M152.754 235.801C144.215 242.494 136.967 255.969 135.002 259.898C134.78 260.342 135.155 260.822 135.643 260.735C135.848 260.699 136.021 260.562 136.105 260.372C141.403 248.434 149.555 239.605 153.55 236.153C153.908 235.844 154.429 235.865 154.886 235.99C161.245 237.731 186.877 217.339 188.637 216.809C171.235 221.852 156.527 231.692 154.833 234.116C157.253 230.654 163.103 205.179 163.877 204.161C152.132 219.369 151.688 230.249 153.105 234.534C153.255 234.989 153.131 235.505 152.754 235.801Z" fill="#8E998F"/>
<path d="M158.686 254.253C90.232 275.693 44.2997 324.624 29.6609 346.494C29.5513 346.658 29.5 346.84 29.5 347.037V347.814C29.5 348.74 30.6745 349.144 31.2833 348.446C90.7974 280.197 130.791 264.987 160 255.5C160.103 255.467 159.993 255.122 159.851 254.772C159.666 254.319 159.153 254.107 158.686 254.253Z" fill="#8E998F"/>
<path d="M166.695 277.792C142.756 267.869 128.834 269.659 124.806 272.386C124.295 272.732 124.432 273.436 124.978 273.722C141.287 282.282 154.16 280.407 166.695 277.792Z" fill="#8E998F"/>
<path d="M149.948 293.266C139.637 279.058 129.279 274.718 124.79 274.562C124.134 274.54 123.803 275.232 124.134 275.8C130.248 286.316 139.999 290.052 149.948 293.266Z" fill="#8E998F"/>
<path d="M176.347 248.555C175.114 248.936 166.75 251.531 162.444 253.144C161.994 253.312 161.878 253.886 162.217 254.225C162.391 254.399 162.642 254.465 162.878 254.394C169.682 252.347 183.252 248.115 186 248.508C188.8 248.908 188.916 249.846 190 250.508C199 256.008 243 250.453 243.5 250.508C218.5 245.508 194 248.008 187.5 247.508C189.092 247.508 206.824 243.382 215.374 241.043C215.46 241.019 215.541 241.008 215.631 241.007C231.682 240.917 265.003 224.174 266 224.008C224.221 228.484 219.219 234.61 214.082 238.939C214.027 238.985 213.971 239.023 213.908 239.056C206.251 243.035 187.161 246.675 179.515 248.005C179.505 248.007 179.495 248.008 179.484 248.008C179.316 248.008 179.238 247.8 179.364 247.689L182.667 244.799C182.879 244.614 183.148 244.53 183.43 244.537C191.712 244.741 213.657 225.827 217.441 222.883C217.77 222.627 217.726 222.61 217.335 222.757C184.855 234.927 183.351 239.271 181.561 243.368C181.521 243.461 181.497 243.56 181.47 243.658C181.074 245.068 177.381 247.857 176.632 248.411C176.544 248.476 176.452 248.523 176.347 248.555Z" fill="#8E998F"/>
<path d="M6.07432 130.023C10.1291 150.244 11.5652 287.854 9.51427 357.021C9.50506 357.332 9.64122 357.618 9.88751 357.807C15.0746 361.787 20.071 360.369 23.1908 357.767C23.392 357.599 23.5076 357.385 23.5242 357.124C26.4811 310.49 22.9892 124.509 19 128C16.3089 130.354 11.5433 129.574 7.61744 128.572C6.78653 128.36 5.90572 129.182 6.07432 130.023Z" fill="#8E998F"/>
<path d="M6.34626 119.097C9.62115 107.509 4.32014 25.7315 1.08209 -15.9463C1.03694 -16.5275 1.49819 -17 2.08117 -17H7.19245C7.6636 -17 8.06522 -16.7002 8.16048 -16.2388C13.6474 10.3402 17.3126 84.8502 18.4848 119.549C18.4948 119.844 18.3754 120.117 18.1444 120.301C14.5632 123.151 9.58695 121.817 6.84854 120.461C6.36523 120.222 6.19959 119.616 6.34626 119.097Z" fill="#8E998F"/>
<path d="M8.998 363.547C8.93716 404.543 7.50677 533.359 7.50002 593.574C7.49999 593.854 7.61576 594.11 7.83195 594.289C13.9944 599.374 27.3453 595.964 28 594C29 591 26 361 23.5 362.5C18.3416 365.595 14.0004 364.881 10.9421 362.729C10.1925 362.202 8.99936 362.63 8.998 363.547Z" fill="#8E998F"/>
<path d="M7.5 602.969V813C7.5 813.552 7.94772 814 8.5 814H27.5C28.0523 814 28.5 813.552 28.5 813V603.74C28.5 602.807 27.2669 602.329 26.5249 602.894C20.9338 607.152 13.5183 604.68 9.14276 602.079C8.43928 601.661 7.5 602.151 7.5 602.969Z" fill="#8E998F"/>
</svg>
