<svg width="226" height="800" viewBox="0 0 226 800" fill="none" xmlns="http://www.w3.org/2000/svg">
<path d="M1.27509 730.291L-13.796 816.828C-13.9025 817.44 -13.4318 818 -12.8109 818H1.5C4.61093 818 11.1243 761.924 14.2408 731.544C14.3338 730.638 13.1525 729.974 12.2917 730.273C9.19382 731.35 5.24814 730.467 2.70775 729.508C2.09045 729.275 1.38831 729.641 1.27509 730.291Z" fill="#8E998F"/>
<path d="M23.769 572.257C20.2691 591.902 8.64066 681.004 3.07303 722.456C3.02631 722.804 3.16582 723.139 3.45406 723.339C7.1512 725.908 11.5499 724.469 13.6506 723.22C13.8786 723.084 14.0219 722.893 14.0721 722.633C17.3076 705.823 26.8145 615.926 31.3461 573.442C31.4213 572.737 30.7478 572.2 30.0405 572.252C28.2919 572.38 26.498 571.96 25.2186 571.508C24.5933 571.287 23.8853 571.604 23.769 572.257Z" fill="#8E998F"/>
<path d="M44.9279 422.882C43.6409 437.266 31.6085 525.133 25.0751 567.513C25.0265 567.828 25.1295 568.138 25.3744 568.342C27.3024 569.95 29.9374 569.941 31.3776 569.077C31.4601 569.028 31.5 569.013 31.5476 568.929C34.1183 564.405 50.282 431.49 50.9867 423.375C51.0101 423.107 50.8643 423.07 50.6166 423.177C48.0225 424.295 46.5478 423.276 45.7296 422.561C45.3347 422.216 44.9747 422.359 44.9279 422.882Z" fill="#8E998F"/>
<path d="M70.4585 252.863C69.3004 268.196 53.7536 367.873 46.053 418.154C46.0177 418.384 46.0601 418.615 46.2067 418.796C47.4286 420.307 49.977 419.872 51.2255 419.173C51.4099 419.07 51.5195 418.948 51.5799 418.745C54.5562 408.757 69.8952 305.152 77.2603 253.677C77.3692 252.915 76.5721 252.277 75.8029 252.275C74.6482 252.272 73.3601 251.989 72.2728 251.654C71.5051 251.418 70.519 252.062 70.4585 252.863Z" fill="#8E998F"/>
<path d="M94.9414 77.4585C93.9149 89.525 79.6619 195.106 72.089 246.892C72.0331 247.274 72.2024 247.643 72.5425 247.826C74.5692 248.92 76.6415 248.681 77.702 248.168C77.9022 248.072 78.0203 247.949 78.0804 247.735C80.6887 238.445 94.0692 129.266 100.5 76.5C100.347 77.7523 97.2275 77.2525 95.7088 76.8392C95.1759 76.6941 94.9882 76.9082 94.9414 77.4585Z" fill="#8E998F"/>
<path d="M105.472 -8.86638C105.014 1.881 99.1576 49.5253 96.089 73.3111C96.0345 73.7331 96.2526 74.1393 96.6605 74.2606C97.9923 74.6566 99.3032 74.3204 99.9191 74.0387C99.9736 74.0137 100.008 74.0021 100.044 73.9544C101.642 71.8588 106.108 19.9441 108.324 -7.79448C108.372 -8.38865 106.985 -9.29645 106.425 -9.50061C105.977 -9.66381 105.492 -9.34241 105.472 -8.86638Z" fill="#8E998F"/>
<path d="M188.556 13.8407L178.027 20.458C177.973 20.4919 177.926 20.536 177.889 20.5879C177.578 21.0241 178.092 21.5721 178.547 21.2883L180.858 19.8461C180.952 19.7873 181.062 19.759 181.173 19.7649L187.58 20.1099C187.642 20.1132 187.701 20.1268 187.758 20.15C195.539 23.3146 209.803 18.109 209.491 18.076C201.219 17.2031 190.921 15.9789 188.174 18.7154C188.103 18.7857 188.02 18.8401 187.924 18.8663C185.811 19.4418 183.111 19.0665 182.003 18.9952C181.7 18.9758 181.717 18.9401 181.981 18.7928L189.141 14.8079C189.269 14.7363 189.417 14.7205 189.56 14.7578C199.769 17.4258 224.931 -8.19211 225.538 -8.34239C208.559 -1.9072 189.507 7.71176 188.825 13.3922C188.803 13.5751 188.712 13.7426 188.556 13.8407Z" fill="#8E998F"/>
<path d="M195.515 -7.81699C186.53 -0.0503696 182.866 9.99772 182.298 14.3783C182.244 14.7945 182.682 15.0564 183.032 14.8245C189.177 10.7522 192.462 1.62236 195.515 -7.81699Z" fill="#8E998F"/>
<path d="M164.781 110.439C159.103 93.0276 146.835 81.983 141.282 78.9717C140.924 78.7773 140.524 79.0766 140.59 79.479C142.418 90.5571 153.308 100.572 164.781 110.439Z" fill="#8E998F"/>
<path d="M136.515 74.361C132.306 73.3589 127.284 74.6691 125.012 75.5509C124.846 75.6153 124.776 75.8082 124.855 75.9676C124.922 76.1007 125.078 76.1657 125.222 76.1245C133.946 73.6083 136.77 75.4105 135.99 75.4105C125.781 75.4105 115.787 109.26 115 109.782C140.188 93.2524 142.025 75.6729 136.515 74.361Z" fill="#8E998F"/>
<path d="M148.896 80.2783C156.35 77.2311 174.443 76.2098 191.976 95.043C192.191 95.1858 192.279 95.2644 192.234 95.2578C192.171 95.2485 192.117 95.1942 192.074 95.1478C192.041 95.1128 192.009 95.0779 191.976 95.043C190.613 94.1379 184.114 90.6558 173.511 89.9717C165.606 89.4617 153.242 86.7216 148.698 81.029C148.494 80.7732 148.593 80.4021 148.896 80.2783Z" fill="#8E998F"/>
<path d="M179.481 21.0011C146.247 43.4444 109.911 83.0224 95.7704 100.153C95.6914 100.249 95.6451 100.359 95.6279 100.482L95.3514 102.454C95.2556 103.137 96.1262 103.515 96.5542 102.974C121.596 71.3251 162.056 35.3063 179.481 21.0011Z" fill="#8E998F"/>
<path d="M123.072 66.4825C125.258 62.4677 127.225 54.7897 123.809 51.5356C123.558 51.2965 123.174 51.5957 123.237 51.9368C124.679 59.8182 108.224 78.617 108.002 78.7637C107.963 78.7897 108.047 78.6859 108.06 78.6406C112.734 61.9879 115.029 42.3634 122.103 47.9805C123.405 49.0145 124.446 47.2466 125.748 47.4589C133.714 48.7576 149.364 55.0312 162.882 69.7405C162.948 69.8129 162.968 69.8273 162.876 69.7917C160.756 68.9675 131.985 60.244 125.303 52.5555C126.297 54.7801 127.013 59.885 123.428 66.6867C123.413 66.7147 123.391 66.7393 123.364 66.7568C123.194 66.8705 122.974 66.6627 123.072 66.4825Z" fill="#8E998F"/>
</svg>
